<svg width="126" height="49" viewBox="0 0 126 49" fill="none" xmlns="http://www.w3.org/2000/svg">
<path d="M19.76 18.896C19.44 18.576 18.88 18.576 18.56 18.976C18.48 18.976 15.76 21.856 12.8 22.576C14.24 20.336 15.2 17.936 15.2 16.176C15.2 15.296 14.96 14.576 14.48 14.096C13.92 13.456 13.2 13.216 12.24 13.216C10.64 13.216 9.28 13.936 8.24 15.296C7.68 16.016 7.28 16.976 7.12 18.016C6.88 17.856 6.56 17.696 6.08 17.696C4.96 17.696 3.6 19.616 2.72 21.136C2.16 22.176 0.88 24.736 0.88 26.816C0.88 28.576 1.76 29.536 3.36 29.536C6.08 29.536 9.12 27.296 11.36 24.496C11.44 24.496 11.44 24.496 11.44 24.496C15.6 24.496 19.6 20.336 19.84 20.176C20.16 19.776 20.08 19.216 19.76 18.896ZM3.36 27.856C2.8 27.856 2.72 27.616 2.64 27.296C2.24 25.456 4.32 21.536 5.6 19.936C5.68 20.176 5.76 20.336 6 20.416C6.32 20.656 6.72 20.576 6.96 20.336C7.2 22.096 8.08 23.456 9.44 24.096C7.6 26.176 5.36 27.856 3.36 27.856ZM10.64 22.656C9.2 22.256 8.64 20.816 8.64 19.456C8.64 17.216 10 14.896 12.24 14.896C12.72 14.896 13.04 14.976 13.2 15.216C13.44 15.456 13.44 15.856 13.44 16.176C13.44 17.856 12.32 20.336 10.64 22.656ZM36.5756 18.816C36.2556 18.576 35.6956 18.656 35.3756 18.976C32.6556 22.496 29.1356 26.336 28.0156 26.736C27.9356 25.936 28.8956 23.456 29.4556 22.096C30.5756 19.136 31.2156 17.376 30.5756 16.416C30.2556 16.016 29.8556 15.776 29.3756 15.776C26.7356 15.776 22.8956 19.296 20.8956 21.376C20.8156 21.456 20.0156 22.176 19.1356 23.216C20.4956 20.416 22.1756 17.296 22.8156 16.736C23.1356 16.576 23.3756 16.256 23.3756 15.936C23.3756 15.456 22.9756 15.056 22.4956 15.056C22.0156 15.056 21.3756 15.056 18.3356 20.976C17.4556 22.656 15.4556 26.816 15.4556 28.336C15.4556 28.576 15.4556 28.816 15.6156 29.056C15.7756 29.376 16.0956 29.536 16.4956 29.536C16.9756 29.536 17.3756 29.216 17.3756 28.736C17.5356 26.976 25.6956 18.016 29.0556 17.536C29.0556 18.336 28.3356 20.176 27.7756 21.456C26.5756 24.656 25.8556 26.656 26.5756 27.776C26.8956 28.256 27.3756 28.496 27.9356 28.496C29.9356 28.496 34.3356 23.216 36.7356 20.096C37.0556 19.696 36.9756 19.136 36.5756 18.816ZM45.1681 17.056C44.9281 16.656 44.3681 16.176 43.4081 16.176C41.8881 16.176 39.3281 17.776 36.5281 20.336C38.2081 17.056 39.7281 14.096 40.8481 12.096C41.0881 11.616 40.9281 11.136 40.4481 10.896C40.0481 10.656 39.4881 10.816 39.3281 11.216C39.0081 11.776 35.8081 17.856 32.3681 24.896C27.5681 30.816 23.3281 38.976 23.3281 46.816V46.896C23.3281 46.976 23.3281 47.136 23.3281 47.216C23.3281 47.696 23.6481 48.096 24.1281 48.096C24.6081 48.096 25.0081 47.696 25.0081 47.216C25.0081 44.816 28.3681 37.216 32.1281 29.296C32.0481 29.696 32.0481 30.016 32.0481 30.336C32.0481 32.096 33.0081 33.216 34.6081 33.216C39.8881 33.216 45.6481 23.136 45.6481 18.816C45.6481 18.096 45.4881 17.536 45.1681 17.056ZM40.6881 26.576C38.6081 29.616 36.2881 31.456 34.6081 31.456C34.0481 31.456 33.8881 31.216 33.8081 30.976C33.4881 29.936 34.2881 27.776 34.7681 27.296C35.0881 27.136 35.3281 26.816 35.3281 26.416C35.3281 25.936 34.9281 25.536 34.4481 25.536C34.3681 25.536 34.2081 25.536 33.9681 25.696C37.8081 21.056 41.7281 17.936 43.4081 17.936C43.6481 17.936 43.7281 18.016 43.7281 18.096C43.8081 18.096 43.8881 18.336 43.8881 18.816C43.8881 20.656 42.6081 23.856 40.6881 26.576ZM63.6663 18.896C63.3463 18.576 62.7863 18.576 62.4663 18.976C62.3863 18.976 59.6663 21.856 56.7063 22.576C58.1463 20.336 59.1063 17.936 59.1063 16.176C59.1063 15.296 58.8663 14.576 58.3863 14.096C57.8263 13.456 57.1063 13.216 56.1463 13.216C54.5463 13.216 53.1863 13.936 52.1463 15.296C51.5863 16.016 51.1862 16.976 51.0263 18.016C50.7863 17.856 50.4663 17.696 49.9863 17.696C48.8663 17.696 47.5063 19.616 46.6263 21.136C46.0663 22.176 44.7862 24.736 44.7862 26.816C44.7862 28.576 45.6662 29.536 47.2663 29.536C49.9863 29.536 53.0263 27.296 55.2663 24.496C55.3463 24.496 55.3463 24.496 55.3463 24.496C59.5063 24.496 63.5063 20.336 63.7463 20.176C64.0663 19.776 63.9863 19.216 63.6663 18.896ZM47.2663 27.856C46.7063 27.856 46.6263 27.616 46.5463 27.296C46.1463 25.456 48.2263 21.536 49.5063 19.936C49.5863 20.176 49.6663 20.336 49.9063 20.416C50.2263 20.656 50.6263 20.576 50.8663 20.336C51.1063 22.096 51.9863 23.456 53.3463 24.096C51.5063 26.176 49.2663 27.856 47.2663 27.856ZM54.5463 22.656C53.1063 22.256 52.5463 20.816 52.5463 19.456C52.5463 17.216 53.9063 14.896 56.1463 14.896C56.6263 14.896 56.9463 14.976 57.1063 15.216C57.3463 15.456 57.3463 15.856 57.3463 16.176C57.3463 17.856 56.2263 20.336 54.5463 22.656ZM74.4819 18.096C74.1619 17.776 73.6019 17.776 73.2819 18.096C70.4019 21.056 64.9619 25.696 62.5619 25.696C62.4819 25.696 62.4819 25.696 62.4819 25.696C61.9219 24.816 64.0819 19.936 67.1219 15.136C67.3619 14.736 67.2019 14.176 66.8019 13.936C66.4019 13.696 65.9219 13.776 65.6019 14.176C65.6019 14.256 64.1619 16.576 62.8019 19.216C60.3219 24.176 60.4819 25.776 60.9619 26.576C61.2819 27.136 61.8419 27.456 62.5619 27.456C66.4819 27.456 73.6819 20.176 74.4819 19.296C74.8819 18.976 74.8819 18.416 74.4819 18.096ZM67.7619 13.136C68.4019 13.136 68.9619 12.576 68.9619 11.936C68.9619 11.296 68.4019 10.736 67.7619 10.736C67.1219 10.736 66.5619 11.296 66.5619 11.936C66.5619 12.576 67.1219 13.136 67.7619 13.136ZM90.0131 18.816C89.6931 18.576 89.1331 18.656 88.8131 18.976C86.0931 22.496 82.5731 26.336 81.4531 26.736C81.3731 25.936 82.3331 23.456 82.8931 22.096C84.0131 19.136 84.6531 17.376 84.0131 16.416C83.6931 16.016 83.2931 15.776 82.8131 15.776C80.1731 15.776 76.3331 19.296 74.3331 21.376C74.2531 21.456 73.4531 22.176 72.5731 23.216C73.9331 20.416 75.6131 17.296 76.2531 16.736C76.5731 16.576 76.8131 16.256 76.8131 15.936C76.8131 15.456 76.4131 15.056 75.9331 15.056C75.4531 15.056 74.8131 15.056 71.7731 20.976C70.8931 22.656 68.8931 26.816 68.8931 28.336C68.8931 28.576 68.8931 28.816 69.0531 29.056C69.2131 29.376 69.5331 29.536 69.9331 29.536C70.4131 29.536 70.8131 29.216 70.8131 28.736C70.9731 26.976 79.1331 18.016 82.4931 17.536C82.4931 18.336 81.7731 20.176 81.2131 21.456C80.0131 24.656 79.2931 26.656 80.0131 27.776C80.3331 28.256 80.8131 28.496 81.3731 28.496C83.3731 28.496 87.7731 23.216 90.1731 20.096C90.4931 19.696 90.4131 19.136 90.0131 18.816ZM125.197 3.37597C124.957 3.37597 124.957 3.37597 103.517 4.97597C101.997 5.05596 100.397 5.21597 98.7169 5.29596C99.3569 4.25597 100.077 3.13596 100.717 2.09596C100.957 1.61596 100.877 1.13597 100.477 0.895964C100.077 0.575963 99.5169 0.735966 99.2769 1.13597C99.2769 1.13597 98.1569 2.89597 96.6369 5.45596C81.8369 6.57596 65.3569 7.77597 63.9969 7.77597C63.5169 7.77597 63.1969 8.17597 63.1969 8.65597C63.1969 9.13596 63.5169 9.53596 63.9969 9.53596C64.9569 9.53596 71.9169 9.05597 81.0369 8.33597C81.1169 8.41596 81.1969 8.41596 81.3569 8.41596C85.5969 8.41596 91.3569 9.05597 92.1569 9.85597C92.9569 10.656 91.3569 14.336 89.4369 17.216C89.1969 17.616 89.2769 18.096 89.5969 18.336C85.1969 27.376 86.0769 28.976 86.4769 29.616C86.7969 30.256 87.4369 30.656 88.1569 30.656C92.7169 30.656 101.037 21.056 101.997 20.016C102.317 19.616 102.237 19.136 101.917 18.816C101.517 18.496 100.957 18.496 100.717 18.896C100.637 18.896 98.4769 21.456 95.7569 23.936C91.1969 28.256 89.0369 28.896 88.1569 28.896C87.9969 28.896 87.9969 28.816 87.9969 28.816C87.1169 27.376 90.5569 19.056 97.6769 7.13596C99.6769 6.97596 101.677 6.81597 103.677 6.65597C114.237 5.85596 124.237 5.13596 124.957 5.13596C125.357 5.13596 125.677 4.81597 125.837 4.41597C125.917 4.01596 125.677 3.53596 125.197 3.37597ZM93.9969 10.016C93.9169 9.45597 93.6769 8.97596 93.3569 8.57596C92.9569 8.17597 92.0769 7.85596 91.1169 7.61597C92.5569 7.53596 94.0769 7.37597 95.5969 7.29596C95.1169 8.09596 94.5569 9.05597 93.9969 10.016Z" fill="black"/>
</svg>
